<svg width="29" height="22" viewBox="0 0 29 22" fill="none" xmlns="http://www.w3.org/2000/svg">
<path d="M28.7272 0.712402C28.1332 2.89056 27.5391 5.25259 26.9451 7.79849C26.3793 10.3161 25.856 12.8054 25.3751 15.2665C24.8942 17.7275 24.5123 19.9622 24.2294 21.9707H16.719L16.0826 21.0372C16.5917 18.9722 17.2424 16.7657 18.0344 14.4178C18.8548 12.0699 19.7317 9.72205 20.6652 7.37417C21.627 4.998 22.5888 2.77741 23.5505 0.712402H28.7272ZM13.1124 0.712402C12.5183 2.89056 11.9243 5.25259 11.3302 7.79849C10.7645 10.3161 10.2411 12.8054 9.76025 15.2665C9.27936 17.7275 8.89748 19.9622 8.6146 21.9707H1.14663L0.637451 21.0372C1.14663 18.9722 1.78311 16.7657 2.54688 14.4178C3.33893 12.0699 4.20171 9.72205 5.13521 7.37417C6.0687 4.998 7.01634 2.77741 7.97813 0.712402H13.1124Z" fill="#426B1F"/>
</svg>
